<svg width="156" height="156" viewBox="0 0 156 156" fill="none" xmlns="http://www.w3.org/2000/svg">
<g opacity="0.5">
<path fill-rule="evenodd" clip-rule="evenodd" d="M-137.084 -10.921C-145.491 -6.0672 -145.491 6.06732 -137.084 10.9211L-76.7712 45.743C-84.7666 32.3694 -89.3615 16.7283 -89.3615 0.014122C-89.3615 -16.718 -84.7568 -32.3746 -76.7455 -45.7577L-137.084 -10.921ZM-1.4679 -89.2192C-1.01878 -89.2259 -0.568863 -89.2292 -0.118164 -89.2292C33.5043 -89.2292 62.784 -70.6358 77.9997 -43.1704V-113.258C77.9997 -122.965 67.4909 -129.033 59.0838 -124.179L-1.4679 -89.2192ZM77.9997 43.1986C62.784 70.6641 33.5043 89.2575 -0.118164 89.2575C-0.552155 89.2575 -0.985413 89.2544 -1.41794 89.2482L59.0838 124.179C67.4909 129.033 77.9997 122.965 77.9997 113.258V43.1986Z" fill="#34A853" fill-opacity="0.9"/>
<path fill-rule="evenodd" clip-rule="evenodd" d="M89.11 1.65758C89.12 1.10932 89.125 0.559868 89.125 0.0092392C89.125 -33.5333 70.6198 -62.7538 43.2617 -77.9999L113.258 -77.9999C122.966 -77.9999 129.033 -67.4911 124.179 -59.0841L89.11 1.65758ZM45.9099 76.4825C32.4706 84.5888 16.7207 89.2526 -0.118355 89.2526C-16.8059 89.2526 -32.4237 84.6724 -45.7831 76.7005L-10.9207 137.084C-6.06683 145.491 6.06769 145.491 10.9215 137.084L45.9099 76.4825ZM-89.3535 1.2345L-124.178 -59.0841C-129.032 -67.4911 -122.965 -77.9999 -113.257 -77.9999L-43.4984 -77.9999C-70.8565 -62.7538 -89.3617 -33.5333 -89.3617 0.0092392C-89.3617 0.418304 -89.3589 0.826729 -89.3535 1.2345Z" fill="#FBBC04" fill-opacity="0.9"/>
<path fill-rule="evenodd" clip-rule="evenodd" d="M137.084 10.921C145.491 6.0672 145.491 -6.06731 137.084 -10.9211L76.3828 -45.967C84.4716 -32.538 89.1245 -16.8053 89.1245 0.014122C89.1245 16.8154 84.4817 32.5323 76.409 45.9518L137.084 10.921ZM1.424 89.2444C0.910767 89.2531 0.396477 89.2574 -0.118828 89.2574C-33.5678 89.2574 -62.7187 70.8555 -78 43.6231L-78 113.258C-78 122.965 -67.4912 129.033 -59.0841 124.179L1.424 89.2444ZM1.47462 -89.2153L-59.0841 -124.179C-67.4912 -129.033 -78 -122.965 -78 -113.258L-78 -43.5949C-62.7187 -70.8272 -33.5678 -89.2292 -0.118828 -89.2292C0.413422 -89.2292 0.944588 -89.2246 1.47462 -89.2153Z" fill="#EA4335" fill-opacity="0.9"/>
<path fill-rule="evenodd" clip-rule="evenodd" d="M10.9215 -137.084C6.06769 -145.491 -6.06683 -145.491 -10.9206 -137.084L-45.7995 -76.6721C-32.4364 -84.6501 -16.8127 -89.234 -0.11824 -89.234C16.7276 -89.234 32.4834 -84.5665 45.9262 -76.4541L10.9215 -137.084ZM89.1098 -1.65796C89.12 -1.10342 89.1251 -0.547653 89.1251 0.00930786C89.1251 33.5383 70.6349 62.7487 43.2951 77.9999H113.258C122.966 77.9999 129.033 67.4911 124.179 59.0841L89.1098 -1.65796ZM-43.5316 77.9999C-70.8714 62.7487 -89.3616 33.5383 -89.3616 0.00930786C-89.3616 -0.406189 -89.3587 -0.821014 -89.3531 -1.23517L-124.178 59.0841C-129.032 67.4911 -122.965 77.9999 -113.257 77.9999H-43.5316Z" fill="#4285F4" fill-opacity="0.9"/>
<path fill-rule="evenodd" clip-rule="evenodd" d="M-60.0531 -50.9582L-60.0525 -50.9577L-60.0524 -50.9578C-54.43 -57.5849 -44.4999 -58.3994 -37.8728 -52.7771C-31.3267 -47.2234 -30.452 -37.4666 -35.8503 -30.8419C-18.9996 -50.441 10.4998 -52.8422 30.2995 -36.2125C30.3594 -36.1601 30.4199 -36.1081 30.4808 -36.0564C37.1079 -30.434 47.038 -31.2485 52.6604 -37.8756C58.2821 -44.5019 57.4684 -54.4305 50.8435 -60.0532L50.8446 -60.0545L50.7884 -60.1022C17.653 -88.1615 -31.9573 -84.0749 -60.0531 -50.9582Z" fill="url(#paint0_linear_298_11249)"/>
<path fill-rule="evenodd" clip-rule="evenodd" d="M-36.0566 -30.5997C-30.4342 -37.2267 -31.2487 -47.1569 -37.8758 -52.7792C-44.5029 -58.4016 -54.433 -57.5871 -60.0554 -50.96C-60.0877 -50.9219 -60.1198 -50.8837 -60.1516 -50.8454C-88.0724 -17.8113 -84.0816 31.5569 -51.2614 59.6812L-51.1947 59.7378C-57.6088 54.0825 -58.3389 44.3074 -52.7827 37.7582C-47.2008 31.1788 -37.3727 30.3287 -30.7465 35.8188C-50.4678 18.9534 -52.8791 -10.6823 -36.1289 -30.515C-36.1047 -30.5431 -36.0806 -30.5713 -36.0566 -30.5997Z" fill="url(#paint1_linear_298_11249)"/>
<path fill-rule="evenodd" clip-rule="evenodd" d="M-50.9556 59.937C-17.8202 88.0483 31.83 83.9757 59.9417 50.8405L59.9415 50.8403C54.3191 57.4674 44.389 58.2819 37.7619 52.6596C31.1562 47.0554 30.3256 37.1711 35.8885 30.5442C19.0116 50.3642 -10.7342 52.7836 -30.5933 35.9358L-30.5935 35.936C-37.2206 30.3163 -47.1486 31.1316 -52.7702 37.7577C-58.3917 44.3838 -57.5783 54.3121 -50.9538 59.9348L-50.9556 59.937Z" fill="url(#paint2_linear_298_11249)"/>
<path fill-rule="evenodd" clip-rule="evenodd" d="M35.9481 30.482C30.3258 37.1091 31.1403 47.0392 37.7674 52.6615C44.3945 58.2839 54.3246 57.4694 59.9469 50.8423C59.9929 50.7881 60.0385 50.7337 60.0836 50.6791C87.9772 17.6241 83.9513 -31.7514 51.0895 -59.8528C57.5008 -54.1971 58.2298 -44.4241 52.6744 -37.876C47.0783 -31.2797 37.2143 -30.4421 30.5877 -35.9786C50.3813 -19.0973 52.79 10.6295 35.95 30.4789L35.9478 30.4815L35.9482 30.4819C35.9482 30.4819 35.9482 30.4819 35.9481 30.482Z" fill="url(#paint3_linear_298_11249)"/>
</g>
<defs>
<linearGradient id="paint0_linear_298_11249" x1="12.2545" y1="-59.5698" x2="-46.8184" y2="-42.7238" gradientUnits="userSpaceOnUse">
<stop stop-color="#4285F4"/>
<stop offset="1" stop-color="#4285F4" stop-opacity="0.7"/>
</linearGradient>
<linearGradient id="paint1_linear_298_11249" x1="-59.6164" y1="-12.4108" x2="-42.7315" y2="46.5447" gradientUnits="userSpaceOnUse">
<stop stop-color="#0F9D58"/>
<stop offset="1" stop-color="#0F9D58" stop-opacity="0.7"/>
</linearGradient>
<linearGradient id="paint2_linear_298_11249" x1="-12.3654" y1="59.4524" x2="46.7072" y2="42.6067" gradientUnits="userSpaceOnUse">
<stop stop-color="#F4B400"/>
<stop offset="1" stop-color="#F4B400" stop-opacity="0.7"/>
</linearGradient>
<linearGradient id="paint3_linear_298_11249" x1="59.4918" y1="12.2793" x2="42.6199" y2="-46.7169" gradientUnits="userSpaceOnUse">
<stop stop-color="#DB4437"/>
<stop offset="1" stop-color="#DB4437" stop-opacity="0.7"/>
</linearGradient>
</defs>
</svg>
