<svg width="361" height="362" viewBox="0 0 361 362" fill="none" xmlns="http://www.w3.org/2000/svg">
<path d="M558.312 -362.324L585.193 -326.259L639.717 -311.365L558.312 -362.324ZM557.644 -362.582L551.227 -335.537L584.595 -326.421L557.644 -362.582ZM557.194 -362.342L536.646 -339.519L550.858 -335.637L557.194 -362.342ZM640.899 -310.579L613.519 -288.488L692.824 -256.116L640.899 -310.579ZM585.563 -325.762L613.181 -288.707L640.506 -310.752L585.563 -325.762ZM614.3 -287.757L675.276 -239.03L693.226 -255.539L614.3 -287.757ZM675.577 -238.79L695.721 -222.693L693.415 -255.194L675.577 -238.79ZM696.126 -222.369L699.002 -220.072L694.082 -251.191L696.126 -222.369ZM699.443 -219.718L719.595 -203.616L693.957 -254.428L699.443 -219.718ZM557.073 -362.777L482.36 -354.349L536.235 -339.631L557.073 -362.777ZM471.241 -383.838L457.924 -361.025L481.365 -354.622L556.462 -363.093L471.241 -383.838ZM699.53 -219.159L703.744 -192.52L719.831 -202.938L699.53 -219.159ZM470.673 -383.624L435.524 -367.143L457.544 -361.128L470.673 -383.624ZM696.163 -221.851L698.484 -189.118L703.392 -192.293L699.089 -219.513L696.163 -221.851ZM457.725 -360.683L452.271 -351.339L480.34 -354.505L457.725 -360.683ZM698.592 -188.731L705.421 -179.458L703.458 -191.881L698.592 -188.731ZM434.99 -366.893L425.912 -362.637L451.836 -351.348L457.345 -360.786L434.99 -366.893ZM434.422 -367.049L384.416 -380.709L425.447 -362.84L434.422 -367.049ZM470.238 -383.841L383.208 -381.434L434.956 -367.298L470.238 -383.841ZM551.138 -335.164L537.414 -277.327L612.803 -288.575L584.964 -325.925L551.138 -335.164ZM698.839 -187.75L709.495 -153.694L705.55 -178.638L698.839 -187.75ZM705.913 -178.789L741.06 -131.071L720.047 -202.621L703.807 -192.107L705.913 -178.789ZM710.275 -151.198L719.676 -121.147L741.25 -130.171L706.044 -177.97L710.275 -151.198ZM710.684 -148.615L715.315 -119.324L719.321 -121.001L710.684 -148.615ZM536.361 -339.202L471.849 -267.546L537.008 -277.267L550.769 -335.266L536.361 -339.202ZM452.149 -350.941L471.454 -267.679L535.948 -339.315L481.335 -354.234L452.149 -350.941ZM451.838 -350.596L419.827 -295.855L471.075 -267.649L451.838 -350.596ZM471.822 -267.156L524.852 -226.032L536.914 -276.867L471.822 -267.156ZM425.452 -362.422L358.298 -330.937L451.297 -351.167L425.452 -362.422ZM382.006 -381.341L357.095 -330.793L424.987 -362.625L382.006 -381.341ZM451.531 -350.827L357.222 -330.311L419.493 -296.04L451.531 -350.827ZM675.292 -238.53L599.437 -168.774L698.116 -188.934L695.758 -222.176L675.292 -238.53ZM613.297 -288.07L599.052 -168.938L674.992 -238.77L613.297 -288.07ZM525.184 -225.776L598.652 -168.807L612.928 -288.208L537.319 -276.928L525.184 -225.776ZM381.326 -380.826L321.095 -328.543L356.562 -330.572L381.326 -380.826ZM719.789 -120.782L743.067 -46.3766L741.362 -129.805L719.789 -120.782ZM715.374 -118.937L725.56 -54.5061L742.965 -45.4231L719.437 -120.633L715.374 -118.937ZM698.281 -188.262L652.431 -93.0282L714.951 -119.172L709.901 -151.111L698.281 -188.262ZM599.125 -168.319L652.01 -93.0324L697.979 -188.517L599.125 -168.319ZM715.011 -118.783L652.489 -92.6395L725.138 -54.7261L715.011 -118.783ZM725.634 -54.038L728.57 -35.4601L742.912 -45.0214L725.634 -54.038ZM728.636 -35.0439L730.108 -25.7364L742.59 -44.3492L728.636 -35.0439ZM471.778 -266.707L510.713 -166.439L524.756 -225.625L471.778 -266.707ZM525.087 -225.368L511.001 -165.997L598.265 -168.624L525.087 -225.368ZM471.531 -266.29L471.057 -186.269L510.4 -166.194L471.531 -266.29ZM380.781 -380.857L259.49 -325.018L320.472 -328.507L380.781 -380.857ZM259.024 -324.608L289.481 -301.607L320 -328.099L259.024 -324.608ZM289.791 -301.372L293.565 -298.523L355.785 -330.146L320.623 -328.135L289.791 -301.372ZM293.904 -298.266L323.093 -276.22L356.166 -329.912L293.904 -298.266ZM730.194 -25.1827L733.828 -2.19233L742.887 -44.1066L730.194 -25.1827ZM419.634 -295.525L382.424 -231.893L470.907 -267.305L419.634 -295.525ZM356.977 -330.011L382.049 -232.007L419.298 -295.709L356.977 -330.011ZM471.159 -266.996L382.44 -231.489L470.678 -186.463L471.159 -266.996ZM323.4 -275.989L381.66 -231.99L356.61 -329.906L323.4 -275.989ZM652.573 -92.1652L699.843 -16.3049L728.22 -35.2253L725.214 -54.257L652.573 -92.1652ZM598.975 -167.869L596.653 -83.3712L651.712 -92.7956L598.975 -167.869ZM289.497 -301.116L276.54 -289.869L293.187 -298.33L289.497 -301.116ZM471.055 -185.842L470.9 -160.048L510.14 -165.899L471.055 -185.842ZM700.045 -15.9812L711.371 2.19851L729.795 -25.2711L728.287 -34.8107L700.045 -15.9812ZM596.644 -82.9813L595.625 -45.9606L651.373 -92.3498L596.644 -82.9813ZM275.458 -288.892L289.532 -221.733L322.893 -275.895L293.525 -298.073L275.458 -288.892ZM258.51 -324.518L204.373 -272.118L275.152 -289.17L289.186 -301.352L258.51 -324.518ZM470.897 -159.663L470.318 -62.5493L510.461 -165.561L470.897 -159.663ZM711.361 2.90107L667.509 68.2821L702.587 74.4071L725.904 26.2402L711.361 2.90107ZM510.888 -165.612L470.566 -62.1384L598.252 -168.241L510.888 -165.612ZM598.599 -168.034L470.79 -61.8274L596.27 -83.3046L598.599 -168.034ZM470.526 -61.3955L537.44 2.45605L595.234 -45.6363L596.258 -82.9168L470.526 -61.3955ZM382.033 -231.269L307.853 -135.741L470.518 -159.992L470.674 -186.037L382.033 -231.269ZM289.646 -221.191L307.513 -135.925L381.71 -231.474L323.198 -275.664L289.646 -221.191ZM470.516 -159.607L308.077 -135.388L469.931 -61.8155L470.516 -159.607ZM595.611 -45.4527L592.868 54.3434L651.583 -92.0276L595.611 -45.4527ZM652.078 -92.2369L593.052 54.9047L699.526 -16.092L652.078 -92.2369ZM699.727 -15.7682L593.15 55.2991L667.098 68.2113L711.137 2.54461L699.727 -15.7682ZM537.716 2.72194L592.468 54.9708L595.22 -45.1284L537.716 2.72194ZM289.355 -220.72L249.581 -156.147L307.155 -135.775L289.355 -220.72ZM275.17 -288.41L216.558 -167.832L249.213 -156.278L289.241 -221.262L275.17 -288.41ZM667.277 68.6293L634.992 116.765L702.172 74.7224L667.277 68.6293ZM593.055 55.6708L634.334 117.06L666.864 68.5573L593.055 55.6708ZM634.588 117.468L641.94 131.247L701.13 75.8256L634.588 117.468ZM274.679 -288.271L156.744 -188.998L216.196 -167.959L274.679 -288.271ZM592.784 55.9513L583.08 154.603L634.075 117.357L592.784 55.9513ZM156.675 -188.618L185.387 -104.579L216.03 -167.614L156.675 -188.618ZM307.711 -135.137L350.285 10.2754L469.712 -61.4959L307.711 -135.137ZM307.381 -134.907L265.914 -34.3024L349.861 10.1865L307.381 -134.907ZM150.144 -104.15L176.172 -85.6203L185.151 -104.092L156.486 -187.986L150.144 -104.15ZM249.377 -155.815L197.312 -71.2915L306.96 -135.44L249.377 -155.815ZM185.565 -104.068L196.799 -71.1848L249.008 -155.945L216.391 -167.487L185.565 -104.068ZM307.02 -135.032L197.141 -70.7477L265.575 -34.4814L307.02 -135.032ZM176.488 -85.3968L196.376 -71.2408L185.326 -103.579L176.488 -85.3968ZM641.839 131.867L581.444 188.42L647.524 142.513L641.839 131.867ZM634.307 117.753L580.895 188.409L641.654 131.517L634.307 117.753ZM583.031 155.113L579.656 189.415L633.403 118.319L583.031 155.113ZM582.619 155.417L555.883 174.944L579.242 189.744L582.619 155.417ZM592.374 56.2355L531.023 159.195L555.537 174.724L582.669 154.907L592.374 56.2355ZM591.784 56.4789L502.19 140.93L530.701 158.991L591.784 56.4789ZM537.421 2.96767L428.482 93.6188L592.259 55.2994L537.421 2.96767ZM470.22 -61.1613L428.081 93.4537L537.143 2.7034L470.22 -61.1613ZM350.471 10.6092L427.647 93.6104L469.812 -61.1116L350.471 10.6092ZM592.001 55.7508L428.224 94.0702L501.858 140.72L592.001 55.7508ZM197.313 -70.2265L248.192 7.69406L265.429 -34.127L197.313 -70.2265ZM350.35 11.0412L348.702 80.5557L427.215 93.7063L350.35 11.0412ZM428.252 94.5378L469.524 171.196L501.572 140.99L428.252 94.5378ZM349.97 11.0343L289.554 70.6503L348.323 80.4922L349.97 11.0343ZM248.447 8.08009L289.189 70.4767L349.852 10.6151L265.767 -33.9465L248.447 8.08009ZM138.426 -112.024L143.449 -20.7281L149.748 -103.964L138.426 -112.024ZM176.319 -85.0488L144.082 -18.73L196.455 -70.7173L176.319 -85.0488ZM150.111 -103.705L143.686 -18.7861L176.004 -85.2739L150.111 -103.705ZM555.551 175.186L496.237 218.514L578.963 190.019L555.551 175.186ZM530.828 159.524L495.744 218.402L555.205 174.966L530.828 159.524ZM469.712 171.545L495.11 218.719L530.506 159.32L501.904 141.199L469.712 171.545ZM469.424 171.814L445.741 194.136L494.649 218.665L469.424 171.814ZM427.865 94.6287L419.705 181.08L445.378 193.955L469.235 171.467L427.865 94.6287ZM143.671 -17.7825L178.625 30.2078L196.457 -70.1809L143.671 -17.7825ZM427.504 94.4197L358.04 150.153L419.339 180.897L427.504 94.4197ZM348.695 80.9425L347.187 144.472L427.213 94.0935L348.695 80.9425ZM289.608 71.0453L346.809 144.286L348.314 80.8779L289.608 71.0453ZM425.019 95.9257L347.375 144.806L357.665 149.966L425.019 95.9257ZM347.787 145.438L354.237 152.714L357.336 150.227L347.787 145.438ZM289.198 71.1395L271.626 108.988L346.342 144.306L289.198 71.1395ZM347.137 145.279L345.83 159.461L353.939 152.954L347.137 145.279ZM288.76 71.1761L240.4 94.2265L271.28 108.826L288.76 71.1761ZM178.935 30.6376L217.125 83.0678L248.014 8.12094L196.853 -70.2338L178.935 30.6376ZM248.268 8.50855L217.415 83.3614L239.954 94.0151L288.876 70.6997L248.268 8.50855ZM419.667 181.487L415.862 221.776L445.081 194.234L419.667 181.487ZM445.447 194.415L416.128 222.052L494.356 218.945L445.447 194.415ZM354.491 153.001L415.477 221.807L419.302 181.305L357.712 150.416L354.491 153.001ZM144.064 -16.5932L172.91 62.3787L178.531 30.7292L144.064 -16.5932ZM178.844 31.1584L173.188 62.9983L216.586 82.9761L178.844 31.1584ZM345.782 159.988L342.766 192.717L414.947 221.782L354.192 153.238L345.782 159.988ZM173.66 63.6358L210.58 108.017L239.509 94.2283L217.09 83.6283L173.66 63.6358ZM345.369 160.318L317.615 182.585L342.396 192.568L345.369 160.318ZM342.731 193.111L341.5 206.463L413.541 221.628L342.731 193.111ZM205.114 111.044L247.178 152.609L210.476 108.488L205.114 111.044ZM271.466 109.333L250.142 155.266L346.296 144.708L271.466 109.333ZM346.776 145.037L250.601 155.599L317.208 182.423L345.416 159.791L346.776 145.037ZM210.831 108.319L249.781 155.137L271.121 109.17L239.955 94.439L210.831 108.319ZM316.867 182.695L251.603 156.414L305.9 191.496L316.867 182.695ZM249.72 155.651L249.691 155.626L204.654 111.123L204.599 110.958L204.705 110.816L210.225 108.186L172.828 63.2309L172.824 63.2264L172.814 63.2101L172.812 63.2067L172.81 63.2057L172.807 63.2036L172.807 63.2006L172.804 63.1972L172.794 63.1745L143.242 -17.7353L143.241 -17.7379L143.24 -17.739L143.239 -17.7416L143.239 -17.7443L143.236 -17.748L143.237 -17.7496L143.236 -17.7506L143.234 -17.7585L143.234 -17.7612L143.233 -17.7638L143.233 -17.7665L143.234 -17.7681L143.232 -17.7691L143.233 -17.7707L143.233 -17.7734L143.231 -17.7744L143.232 -17.776L143.232 -17.7786L143.23 -17.7797L143.231 -17.7813L143.229 -17.7892L143.23 -17.7934L138.023 -112.398L138.12 -112.574L138.324 -112.563L149.781 -104.409L156.177 -188.944L156.213 -189.041L156.214 -189.043L156.216 -189.044L156.217 -189.046L156.245 -189.075L274.501 -288.62L203.783 -271.583L203.572 -271.677L203.606 -271.907L258.36 -324.904L258.413 -324.942L258.415 -324.943L258.415 -324.943L381.835 -381.763L381.878 -381.776L381.879 -381.777L381.899 -381.78L381.904 -381.781L381.915 -381.781L471.142 -384.248L471.148 -384.247L471.152 -384.246L471.155 -384.247L471.196 -384.24L557.592 -363.209L557.621 -363.201L557.655 -363.183L641.013 -311.002L641.037 -310.987L641.038 -310.986L641.057 -310.969L693.712 -255.736L693.732 -255.714L693.733 -255.713L693.75 -255.686L720.33 -203.005L720.342 -202.972L741.732 -130.143L741.739 -130.088L743.475 -45.0488L743.474 -45.0129L743.473 -45.0113L743.47 -44.9969L733.985 -1.11353L733.794 -0.963292L733.613 -1.12466L729.882 -24.7163L711.593 2.55395L726.284 26.1302L726.292 26.3117L702.87 74.6994L702.844 74.7418L702.825 74.7593L642.129 131.594L647.939 142.484L647.879 142.73L579.51 190.226L579.506 190.228L579.503 190.23L579.502 190.232L579.501 190.233L579.498 190.234L579.497 190.235L579.46 190.252L495.165 219.286L495.164 219.288L495.161 219.288L495.158 219.289L495.157 219.29L495.156 219.289L495.155 219.291L495.105 219.297L415.639 222.451L415.587 222.449L341.255 206.801L341.105 206.596L342.359 192.961L317.273 182.86L306.032 191.88L305.808 191.89L249.725 155.654L249.72 155.651Z" fill="#120E59"/>
<path d="M206.603 112.193C207.268 111.19 206.994 109.839 205.991 109.174C204.988 108.509 203.636 108.783 202.972 109.786C202.308 110.788 202.581 112.14 203.584 112.805C204.588 113.47 205.939 113.195 206.603 112.193Z" fill="#A8A8A8"/>
<path d="M218.987 84.6619C219.652 83.6583 219.377 82.3065 218.375 81.6426C217.372 80.9777 216.021 81.2515 215.356 82.255C214.692 83.2569 214.966 84.6078 215.969 85.2727C216.971 85.9366 218.323 85.6637 218.987 84.6619Z" fill="#A8A8A8"/>
<path d="M174.79 64.3147C175.454 63.3117 175.181 61.9602 174.178 61.2952C173.174 60.6303 171.823 60.9049 171.158 61.9079C170.493 62.911 170.768 64.2617 171.771 64.9267C172.774 65.5916 174.125 65.3178 174.79 64.3147Z" fill="#A8A8A8"/>
<path d="M307.726 192.935C308.391 191.931 308.117 190.58 307.115 189.917C306.112 189.252 304.761 189.526 304.096 190.529C303.432 191.53 303.705 192.883 304.708 193.548C305.71 194.212 307.062 193.936 307.726 192.935Z" fill="#A8A8A8"/>
<path d="M251.641 156.695C252.306 155.691 252.032 154.34 251.028 153.675C250.027 153.012 248.676 153.285 248.011 154.289C247.346 155.292 247.62 156.643 248.622 157.307C249.625 157.972 250.976 157.698 251.641 156.695Z" fill="#A8A8A8"/>
<path d="M343.109 207.819C343.774 206.816 343.5 205.465 342.497 204.8C341.494 204.135 340.143 204.409 339.478 205.412C338.813 206.415 339.087 207.767 340.09 208.432C341.093 209.097 342.445 208.822 343.109 207.819Z" fill="#A8A8A8"/>
<path d="M348.801 146.026C349.465 145.024 349.192 143.671 348.19 143.007C347.187 142.343 345.835 142.618 345.171 143.62C344.506 144.623 344.78 145.974 345.783 146.639C346.785 147.302 348.136 147.029 348.801 146.026Z" fill="#A8A8A8"/>
<path d="M479.731 -392.533L498.473 -379.962L521.243 -383.56L479.731 -392.533ZM527.856 -360.255L595.103 -315.15L601.374 -351.068L551.704 -375.113L527.856 -360.255ZM604.211 -348.155L646.246 -280.984L660.154 -288.41L604.211 -348.155ZM595.797 -314.686L644.84 -281.793L602.004 -350.24L595.797 -314.686ZM661.392 -288.205L718.078 -227.667L672.065 -293.9L661.392 -288.205ZM646.817 -280.426L718.057 -226.573L660.695 -287.831L646.817 -280.426ZM479.245 -391.94L488.305 -378.354L497.364 -379.787L479.245 -391.94ZM477.902 -392.58L468.876 -375.283L487.474 -378.223L477.902 -392.58ZM488.769 -377.657L508.016 -348.791L526.451 -360.278L498.297 -379.161L488.769 -377.657ZM647.945 -278.616L685.271 -227.518L720.069 -224.095L647.945 -278.616ZM685.875 -226.692L705.702 -199.551L720.725 -223.265L685.875 -226.692ZM706.184 -198.888L750.27 -138.539L721.278 -222.708L706.184 -198.888ZM390.341 -391.157L399.516 -369.218L475.189 -392.891L390.341 -391.157ZM399.811 -368.51L401.438 -364.622L467.937 -375.134L477.098 -392.69L399.811 -368.51ZM705.747 -198.197L689.997 -173.335L750.044 -137.556L705.747 -198.197ZM595.653 -313.864L582.427 -238.119L645.428 -280.481L595.653 -313.864ZM646.021 -279.96L582.99 -237.578L684.253 -227.618L646.021 -279.96ZM508.439 -348.156L581.685 -238.308L594.96 -314.33L527.146 -359.812L508.439 -348.156ZM684.857 -226.792L583.56 -236.756L689.341 -173.726L705.263 -198.858L684.857 -226.792ZM399.081 -368.282L373.032 -360.132L400.662 -364.5L399.081 -368.282ZM584.047 -235.578L670.452 -143.911L688.934 -173.081L584.047 -235.578ZM468.437 -374.442L429.527 -299.883L507.368 -348.387L487.94 -377.525L468.437 -374.442ZM401.742 -363.899L428.58 -299.717L467.498 -374.293L401.742 -363.899ZM507.792 -347.752L429.383 -298.894L580.898 -238.116L507.792 -347.752ZM389.61 -390.932L340.897 -355.053L367.867 -359.317L398.785 -368.988L389.61 -390.932ZM670.991 -143.336L702.226 -110.199L750.681 -136.287L689.588 -172.69L670.991 -143.336ZM314.935 -369.152L325.627 -352.638L339.259 -354.795L387.806 -390.551L314.935 -369.152ZM339.561 -354.07L331.045 -347.797L362.875 -357.754L339.561 -354.07ZM702.768 -109.625L725.545 -85.4609L750.572 -135.362L702.768 -109.625ZM326.08 -351.939L329.083 -347.298L337.924 -353.81L326.08 -351.939ZM368.041 -358.571L330.02 -346.676L427.802 -299.599L400.964 -363.775L368.041 -358.571ZM429.799 -297.904L477.522 -240.554L579.775 -237.743L429.799 -297.904ZM726.102 -84.8694L754.299 -54.9548L751.132 -134.778L726.102 -84.8694ZM314.305 -368.722L297.957 -348.264L324.803 -352.509L314.305 -368.722ZM297.251 -347.38L295.136 -344.734L328.313 -347.086L325.256 -351.808L297.251 -347.38ZM429.157 -297.483L438.719 -241.621L476.507 -240.582L429.157 -297.483ZM725.738 -84.1431L712.774 -58.2955L753.748 -54.4274L725.738 -84.1431ZM478.172 -239.773L527.34 -180.685L581.028 -236.945L478.172 -239.773ZM296.133 -347.203L268.591 -342.85L294.1 -344.66L296.133 -347.203ZM312.946 -368.246L262.119 -342.6L296.839 -348.088L312.946 -368.246ZM260.588 -341.518L277.175 -323.479L293.452 -343.85L260.588 -341.518ZM670.571 -142.672L622.963 -67.524L701.53 -109.826L670.571 -142.672ZM702.073 -109.25L623.142 -66.7553L711.96 -58.3728L725.18 -84.7346L702.073 -109.25ZM582.592 -236.009L622.025 -67.4701L670.031 -143.245L582.592 -236.009ZM527.831 -180.096L621.122 -67.9819L581.687 -236.529L527.831 -180.096ZM428.268 -298.162L351.203 -244.027L437.942 -241.642L428.268 -298.162ZM277.697 -322.911L349.393 -244.945L328.677 -346.348L294.488 -343.923L277.697 -322.911ZM329.512 -346.074L350.299 -244.324L427.789 -298.758L329.512 -346.074ZM753.453 -49.7834L724.792 21.3892L738.211 22.6257L753.453 -49.7834ZM622.721 -66.0341L679.999 5.35363L711.591 -57.6401L622.721 -66.0341ZM680.523 6.00979L683.007 9.10485L753.81 -53.6542L712.407 -57.5634L680.523 6.00979ZM683.485 9.69866L690.315 18.214L723.998 21.3178L753.763 -52.5917L683.485 9.69866ZM680.148 6.75887L675.743 15.5422L682.434 9.61052L680.148 6.75887ZM682.913 10.207L675.428 16.8417L689.261 18.1169L682.913 10.207ZM625.735 -61.0593L674.477 16.3645L679.623 6.10431L625.735 -61.0593ZM690.978 19.0401L713.572 47.2024L723.701 22.055L690.978 19.0401ZM438.849 -240.853L461.041 -111.208L526.81 -180.13L477.156 -239.801L438.849 -240.853ZM350.873 -243.273L460.177 -111.733L438.071 -240.875L350.873 -243.273ZM527.302 -179.539L461.51 -110.596L620.795 -67.1849L527.302 -179.539ZM259.897 -341.141L227.119 -260.837L276.693 -322.876L259.897 -341.141ZM277.216 -322.308L226.493 -258.833L349.061 -244.178L277.216 -322.308ZM203.078 -287.263L225.657 -259.277L258.744 -340.336L203.078 -287.263ZM622.072 -65.4483L608.563 15.1942L673.812 16.7429L622.072 -65.4483ZM350.456 -242.581L353.161 -152.749L459.556 -111.287L350.456 -242.581ZM349.692 -242.603L291.407 -167.439L352.39 -152.971L349.692 -242.603ZM202.733 -286.478L187.422 -230.43L225.222 -258.605L202.733 -286.478ZM353.26 -151.891L359.3 -111.385L458.732 -110.789L353.26 -151.891ZM621.3 -65.4568L536.403 13.4837L607.793 15.1757L621.3 -65.4568ZM461.608 -109.777L535.541 13.2443L621.102 -66.3154L461.608 -109.777ZM713.794 48.6974L687.407 114.219L722.629 59.7086L713.794 48.6974ZM674.945 17.5647L685.777 116.223L713.247 48.0143L689.924 18.943L674.945 17.5647ZM226.218 -258.096L237.847 -180.147L290.591 -167.635L349.327 -243.378L226.218 -258.096ZM352.585 -151.252L332.324 -111.547L358.527 -111.389L352.585 -151.252ZM674.282 18.5235L638.001 95.2751L685.111 117.145L674.282 18.5235ZM608.437 15.9547L598.357 76.1377L673.438 17.4973L608.437 15.9547ZM536.392 14.2471L597.566 76.2404L607.666 15.9362L536.392 14.2471ZM673.483 18.4309L598.544 76.9572L637.308 94.9532L673.483 18.4309ZM187.096 -229.237L177.592 -194.444L237.047 -180.339L225.483 -257.848L187.096 -229.237ZM201.511 -284.901L149.911 -202.472L186.428 -229.691L201.511 -284.901ZM186.103 -228.497L149.393 -201.136L176.847 -194.62L186.103 -228.497ZM149.876 -200.237L172.755 -179.636L176.646 -193.883L149.876 -200.237ZM598.618 77.8326L622.108 127.11L636.982 95.6429L598.618 77.8326ZM351.992 -151.766L249.657 -112.029L331.47 -111.552L351.992 -151.766ZM290.894 -166.779L248.821 -112.526L351.506 -152.397L290.894 -166.779ZM237.968 -179.335L247.922 -112.609L290.077 -166.97L237.968 -179.335ZM173.39 -179.066L247.142 -112.664L237.168 -179.524L177.39 -193.708L173.39 -179.066ZM622.531 128.002L636.77 157.874L684.857 117.867L637.673 95.9638L622.531 128.002ZM637.106 158.584L639.579 163.768L679.795 123.071L637.106 158.584ZM597.661 77.5987L533.719 119.351L610.762 151.108L621.684 128.001L597.661 77.5987ZM149.002 -199.997L157.57 -124.047L172.53 -178.813L149.002 -199.997ZM535.55 14.4811L489.608 101.17L532.863 118.999L597.22 76.9767L535.55 14.4811ZM248.242 -111.285L284.767 -20.0241L331.081 -110.79L248.242 -111.285ZM247.622 -110.781L218.668 -58.1733L283.957 -19.9934L247.622 -110.781ZM157.801 -121.997L161.184 -92.0066L246.876 -111.876L173.165 -178.241L157.801 -121.997ZM246.937 -111.118L161.872 -91.3832L218.009 -58.5572L246.937 -111.118ZM359.413 -110.621L384.373 56.7971L460.202 -110.018L359.413 -110.621ZM157.257 -120.008L151.148 -97.6442L160.389 -92.2499L157.257 -120.008ZM460.84 -109.578L384.88 57.5311L534.875 13.6149L460.84 -109.578ZM534.697 14.4628L385.337 58.1912L488.899 100.879L534.697 14.4628ZM285.21 -19.2112L383.669 57.2482L358.641 -110.626L331.937 -110.785L285.21 -19.2112ZM148.372 -198.773L127.163 -111.644L150.467 -98.0432L157.027 -122.057L148.372 -198.773ZM622.11 128.892L611.298 151.763L590.929 196.005L636.163 158.375L622.11 128.892ZM609.995 152.769L557.241 191.191L589.655 196.948L609.995 152.769ZM127.589 -110.512L144.196 -75.0916L150.257 -97.2805L127.589 -110.512ZM144.698 -74.0267L148.903 -65.0541L160.368 -91.3801L150.94 -96.8827L144.698 -74.0267ZM489.248 101.847L452.271 171.622L532.089 119.504L489.248 101.847ZM532.944 119.858L452.259 172.543L556.199 191.006L610.175 151.692L532.944 119.858ZM385.086 58.915L451.226 171.967L488.541 101.557L385.086 58.915ZM384.273 59.0331L363.349 118.163L450.14 171.624L384.273 59.0331ZM383.601 58.645L296.391 76.9186L362.685 117.753L383.601 58.645ZM284.796 -18.563L239.26 41.729L295.447 76.3366L383.301 57.9269L284.796 -18.563ZM149.333 -64.1327L181.218 3.86704L160.731 -90.3019L149.333 -64.1327ZM161.41 -90.7719L182.468 6.02051L217.643 -57.8896L161.41 -90.7719ZM218.3 -57.5041L183.071 6.50929L283.732 -19.2431L218.3 -57.5041ZM283.765 -18.464L183.276 7.24251L238.609 41.3271L283.765 -18.464ZM144.387 -72.8917L131.042 -24.0381L148.498 -64.1214L144.387 -72.8917ZM556.386 191.816L508.493 226.697L588.416 197.504L556.386 191.816ZM452.362 173.337L506.114 227.484L555.343 191.631L452.362 173.337ZM127.157 -109.639L129.59 -21.6202L143.886 -73.9557L127.157 -109.639ZM148.929 -63.2015L129.774 -19.2189L181.504 6.27388L148.929 -63.2015ZM451.29 173.341L436.7 193.84L504.221 226.662L451.29 173.341ZM450.244 173.494L417.712 184.61L436.005 193.501L450.244 173.494ZM363.09 118.9L351.268 152.312L416.739 184.137L450.354 172.651L363.09 118.9ZM130.807 -17.8595L184.008 43.4304L181.943 7.34081L130.807 -17.8595ZM183.264 8.13397L215.613 71.776L238.146 41.9383L183.264 8.13397ZM184.826 44.3725L212.355 76.0876L215.101 72.4521L182.795 8.89385L184.826 44.3725ZM212.866 76.6779L223.439 88.8546L215.487 73.2093L212.866 76.6779ZM295.305 77.1459L226.355 91.5952L350.576 151.975L362.425 118.491L295.305 77.1459ZM215.997 72.5336L225.392 91.0166L294.361 76.5639L238.799 42.3413L215.997 72.5336ZM436.251 194.469L417.439 220.898L504.108 227.454L436.251 194.469ZM416.921 221.624L408.855 232.956L500.224 227.926L416.921 221.624ZM130.745 -16.7679L187.636 106.808L184.079 44.6771L130.745 -16.7679ZM184.896 45.6192L188.454 107.738L211.885 76.7103L184.896 45.6192ZM416.687 184.961L330.712 214.337L416.55 220.831L435.555 194.131L416.687 184.961ZM351.01 153.036L329.452 213.961L415.713 184.487L351.01 153.036ZM226.632 92.5777L328.692 213.821L350.32 152.7L226.632 92.5777ZM188.63 108.766L242.328 164.242L224.836 91.629L212.396 77.2999L188.63 108.766ZM242.815 165.831L242.752 165.777L187.861 109.067L187.816 109.011L187.781 108.95L128.936 -18.8728L128.91 -18.9473L128.909 -18.9484L128.907 -18.9563L128.906 -18.9616L128.905 -18.9642L128.904 -18.9695L128.905 -18.9737L128.903 -18.9748L128.898 -19.0356L126.343 -111.441L126.35 -111.526L126.355 -111.552L148.139 -201.04L148.14 -201.044L148.139 -201.044L148.14 -201.048L148.143 -201.058L148.144 -201.062L148.145 -201.064L148.144 -201.066L148.145 -201.068L148.146 -201.07L148.147 -201.071L148.147 -201.073L148.148 -201.075L148.148 -201.077L148.19 -201.162L202.232 -287.491L202.275 -287.55L202.278 -287.553L202.301 -287.576L259.502 -342.112L259.599 -342.183L314.165 -369.715L314.185 -369.724L314.189 -369.726L314.191 -369.727L314.192 -369.726L314.194 -369.727L314.232 -369.741L389.666 -391.893L389.772 -391.908L477.847 -393.708L477.901 -393.707L477.905 -393.706L477.948 -393.699L523.4 -383.877L523.701 -383.492L523.379 -383.127L499.404 -379.336L527.16 -360.721L551.477 -375.872L551.847 -375.892L601.962 -351.633L602.018 -351.597L602.083 -351.543L660.852 -288.78L672.005 -294.734C672.176 -294.824 672.382 -294.775 672.498 -294.615L721.693 -223.8L721.706 -223.782L721.707 -223.779L721.744 -223.697L751.814 -136.401L751.832 -136.328L751.832 -136.325L751.836 -136.282L755.101 -53.9724L755.102 -53.9217L755.102 -53.919L755.092 -53.8661L738.887 23.1149C738.847 23.306 738.672 23.435 738.48 23.4175L724.492 22.1285L714.122 47.8849L723.396 59.4457L723.42 59.8921L685.889 117.977L685.86 118.017L685.831 118.048L639.741 164.692L639.406 164.799L639.124 164.59L636.502 159.085L590.126 197.667L590.098 197.688L590.097 197.689L590.002 197.736L506.215 228.34L506.126 228.364L506.123 228.364L506.12 228.365L506.116 228.364L506.115 228.366L506.114 228.365L506.111 228.365L506.108 228.366L506.106 228.366L506.104 228.365L506.089 228.367L408.106 233.759L407.75 233.563L407.774 233.157L416.032 221.557L328.801 214.958L328.534 214.819L225.935 92.9325L243.398 165.422L243.211 165.845L242.815 165.831Z" fill="#4285F4"/>
<path d="M332.674 217.125C331.266 219.249 328.402 219.832 326.277 218.424C324.153 217.016 323.572 214.15 324.98 212.026C326.388 209.902 329.253 209.321 331.377 210.729C333.502 212.136 334.081 215.001 332.674 217.125Z" fill="#4285F4"/>
<path d="M231.687 95.7592C229.306 99.3509 224.465 100.334 220.873 97.9539C217.281 95.5735 216.301 90.7311 218.681 87.1394C221.061 83.549 225.902 82.5657 229.494 84.9461C233.086 87.3266 234.067 92.1688 231.687 95.7592Z" fill="#4285F4"/>
<path d="M246.873 168.059C245.465 170.184 242.601 170.766 240.475 169.357C238.351 167.949 237.771 165.084 239.179 162.96C240.587 160.836 243.45 160.255 245.574 161.663C247.7 163.072 248.28 165.935 246.873 168.059Z" fill="#4285F4"/>
<path d="M192.843 111.918C191.118 114.521 187.612 115.232 185.009 113.507C182.408 111.783 181.697 108.277 183.422 105.674C185.146 103.073 188.652 102.363 191.253 104.086C193.856 105.811 194.567 109.317 192.843 111.918Z" fill="#4285F4"/>
<path d="M186.16 9.64758C184.753 11.7717 181.887 12.353 179.763 10.9451C177.639 9.5373 177.057 6.67153 178.465 4.54736C179.873 2.42319 182.739 1.84198 184.863 3.24981C186.987 4.65764 187.568 7.52341 186.16 9.64758Z" fill="#4285F4"/>
<path d="M352.907 154.488C352.089 155.722 350.426 156.06 349.192 155.242C347.96 154.425 347.623 152.762 348.441 151.528C349.259 150.294 350.921 149.957 352.154 150.774C353.387 151.591 353.725 153.254 352.907 154.488Z" fill="#4285F4"/>
<path d="M214.271 78.2403C213.453 79.4744 211.79 79.8116 210.558 78.9949C209.324 78.1772 208.987 76.5144 209.805 75.2803C210.622 74.0481 212.284 73.711 213.518 74.5287C214.75 75.3454 215.088 77.0081 214.271 78.2403Z" fill="#4285F4"/>
<path d="M186.673 46.2196C185.855 47.4537 184.193 47.7908 182.959 46.9731C181.727 46.1564 181.389 44.4937 182.207 43.2596C183.024 42.0273 184.687 41.6902 185.919 42.5069C187.153 43.3246 187.49 44.9874 186.673 46.2196Z" fill="#4285F4"/>
<path d="M240.982 43.6941C240.164 44.9279 238.501 45.2651 237.267 44.4474C236.035 43.6307 235.698 41.9678 236.516 40.734C237.333 39.5002 238.996 39.163 240.229 39.9796C241.462 40.7974 241.8 42.4603 240.982 43.6941Z" fill="#4285F4"/>
</svg>
