<svg width="1631" height="694" viewBox="0 0 1631 694" fill="none" xmlns="http://www.w3.org/2000/svg">
<path fill-rule="evenodd" clip-rule="evenodd" d="M561.589 324.135C545.905 333.277 545.905 355.936 561.589 365.079L674.626 430.972C659.673 405.72 651.08 376.187 651.08 344.626C651.08 313.041 659.686 283.485 674.661 258.22L561.589 324.135ZM815.466 176.14C816.299 176.127 817.133 176.121 817.969 176.121C880.851 176.121 935.61 211.235 964.062 263.103V130.759C964.062 112.474 944.229 101.079 928.432 110.287L815.466 176.14ZM964.062 426.15C935.61 478.017 880.851 513.131 817.969 513.131C817.156 513.131 816.345 513.126 815.535 513.114L928.432 578.926C944.229 588.135 964.062 576.739 964.062 558.454V426.15Z" fill="#34A853"/>
<path fill-rule="evenodd" clip-rule="evenodd" d="M984.819 347.736C984.838 346.701 984.847 345.663 984.847 344.623C984.847 281.287 950.239 226.113 899.074 197.327H1029.98C1048.18 197.327 1059.58 216.988 1050.55 232.786L984.819 347.736ZM904.033 489.017C878.901 504.323 849.448 513.129 817.958 513.129C786.754 513.129 757.55 504.482 732.568 489.432L797.611 603.18C806.709 619.092 829.654 619.092 838.752 603.18L904.033 489.017ZM651.083 346.93L585.814 232.786C576.781 216.988 588.187 197.327 606.385 197.327L736.841 197.327C685.676 226.113 651.068 281.287 651.068 344.623C651.068 345.393 651.073 346.162 651.083 346.93Z" fill="#FBBC04"/>
<path fill-rule="evenodd" clip-rule="evenodd" d="M1074.81 365.077C1090.49 355.934 1090.49 333.275 1074.81 324.133L961.037 257.813C976.161 283.168 984.861 312.871 984.861 344.625C984.861 376.354 976.175 406.034 961.074 431.375L1074.81 365.077ZM820.871 513.105C819.906 513.122 818.94 513.13 817.971 513.13C755.422 513.13 700.91 478.387 672.332 426.971V558.452C672.332 576.738 692.165 588.133 707.962 578.924L820.871 513.105ZM820.942 176.146L707.962 110.286C692.165 101.077 672.332 112.472 672.332 130.758V262.279C700.91 210.863 755.422 176.12 817.971 176.12C818.963 176.12 819.954 176.129 820.942 176.146Z" fill="#EA4335"/>
<path fill-rule="evenodd" clip-rule="evenodd" d="M838.759 86.0257C829.661 70.1142 806.716 70.1141 797.618 86.0257L732.532 199.85C757.526 184.779 786.75 176.119 817.977 176.119C849.474 176.119 878.934 184.929 904.07 200.242L838.759 86.0257ZM984.838 341.491C984.857 342.533 984.867 343.578 984.867 344.624C984.867 407.93 950.292 463.081 899.169 491.879H1029.99C1048.18 491.879 1059.59 472.218 1050.56 456.42L984.838 341.491ZM736.785 491.879C685.662 463.081 651.087 407.93 651.087 344.624C651.087 343.833 651.093 343.042 651.104 342.252L585.821 456.42C576.788 472.217 588.194 491.879 606.392 491.879H736.785Z" fill="#4285F4"/>
<mask id="mask0_204_3527" style="mask-type:alpha" maskUnits="userSpaceOnUse" x="8" y="135" width="557" height="424">
<path d="M525.627 141.135C551.23 150.306 564.031 162.535 564.031 177.82C564.031 182.788 561.739 192.15 557.153 205.907L447.098 524.035C446.334 526.71 444.996 529.958 443.086 533.779C441.175 537.6 436.016 542.759 427.609 549.256C419.584 555.37 409.84 558.427 398.376 558.427C387.294 558.427 377.55 555.37 369.143 549.256C361.118 542.759 355.768 536.454 353.093 530.34L286.028 332.585C243.611 457.925 222.021 521.742 221.256 524.035C220.492 526.327 218.772 529.576 216.097 533.779C213.422 537.983 210.365 541.804 206.926 545.243C198.137 554.032 187.628 558.427 175.4 558.427C163.172 558.427 153.045 555.561 145.02 549.829C137.378 544.097 132.219 538.365 129.544 532.633L125.531 524.035L14.9033 205.907C10.6998 193.297 8.59804 183.934 8.59804 177.82C8.59804 162.535 21.3996 150.498 47.0026 141.708C58.0845 137.887 68.0201 135.976 76.8092 135.976C85.9804 135.976 92.8588 139.033 97.4445 145.148C102.412 151.262 106.807 160.624 110.628 173.235L173.68 364.684L236.16 176.101C241.509 160.051 251.254 148.969 265.393 142.855C271.507 140.18 279.341 138.842 288.894 138.842C298.83 138.842 308.001 142.091 316.408 148.587C324.815 154.701 330.165 160.815 332.458 166.929L398.376 365.831L461.428 173.235C464.485 164.445 466.969 157.949 468.88 153.746C470.79 149.542 474.23 145.53 479.197 141.708C484.547 137.505 491.044 135.403 498.686 135.403C506.329 135.403 515.309 137.314 525.627 141.135Z" fill="black"/>
</mask>
<g mask="url(#mask0_204_3527)">
<rect width="114.142" height="559.413" rx="57.0711" transform="matrix(0.948313 0.317338 0.312117 -0.950044 317.285 608.076)" fill="#0F9D58"/>
<rect width="95.9187" height="487.136" rx="47.9594" transform="matrix(-0.948721 0.316116 -0.310911 -0.950439 462.756 569.638)" fill="#F4B400"/>
<rect width="95.0053" height="506.331" rx="47.5026" transform="matrix(0.948313 0.317338 0.312117 -0.950044 107.49 565.604)" fill="#DB4437"/>
<rect width="113.612" height="559.413" rx="56.8061" transform="matrix(-0.948313 0.317338 -0.312117 -0.950044 258.26 626.007)" fill="#4285F4"/>
</g>
<mask id="mask1_204_3527" style="mask-type:alpha" maskUnits="userSpaceOnUse" x="1066" y="135" width="557" height="424">
<path d="M1105.05 141.136C1079.45 150.307 1066.65 162.536 1066.65 177.821C1066.65 182.789 1068.94 192.151 1073.53 205.908L1183.58 524.035C1184.35 526.71 1185.69 529.958 1187.6 533.78C1189.51 537.601 1194.67 542.76 1203.07 549.256C1211.1 555.37 1220.84 558.428 1232.31 558.428C1243.39 558.428 1253.13 555.37 1261.54 549.256C1269.56 542.76 1274.91 536.455 1277.59 530.341L1344.65 332.586C1387.07 457.926 1408.66 521.743 1409.43 524.035C1410.19 526.328 1411.91 529.576 1414.58 533.78C1417.26 537.983 1420.32 541.805 1423.76 545.244C1432.54 554.033 1443.05 558.428 1455.28 558.428C1467.51 558.428 1477.64 555.562 1485.66 549.829C1493.3 544.097 1498.46 538.365 1501.14 532.633L1505.15 524.035L1615.78 205.908C1619.98 193.297 1622.08 183.935 1622.08 177.821C1622.08 162.536 1609.28 150.498 1583.68 141.709C1572.6 137.888 1562.66 135.977 1553.87 135.977C1544.7 135.977 1537.82 139.034 1533.24 145.148C1528.27 151.263 1523.87 160.625 1520.05 173.235L1457 364.685L1394.52 176.101C1389.17 160.052 1379.43 148.97 1365.29 142.856C1359.17 140.181 1351.34 138.843 1341.79 138.843C1331.85 138.843 1322.68 142.091 1314.27 148.588C1305.87 154.702 1300.52 160.816 1298.22 166.93L1232.31 365.831L1169.25 173.235C1166.2 164.446 1163.71 157.95 1161.8 153.746C1159.89 149.543 1156.45 145.53 1151.48 141.709C1146.13 137.506 1139.64 135.404 1132 135.404C1124.35 135.404 1115.37 137.315 1105.05 141.136Z" fill="black"/>
</mask>
<g mask="url(#mask1_204_3527)">
<rect width="114.142" height="559.413" rx="57.0711" transform="matrix(-0.948313 0.317338 -0.312117 -0.950044 1313.37 608.077)" fill="#0F9D58"/>
<rect width="95.9187" height="487.136" rx="47.9594" transform="matrix(0.948721 0.316116 0.310911 -0.950439 1167.93 569.639)" fill="#F4B400"/>
<rect width="95.0053" height="506.331" rx="47.5026" transform="matrix(-0.948313 0.317338 -0.312117 -0.950044 1523.16 565.607)" fill="#DB4437"/>
<rect width="113.612" height="559.413" rx="56.8061" transform="matrix(0.948313 0.317338 0.312117 -0.950044 1372.39 626.009)" fill="#4285F4"/>
</g>
<path fill-rule="evenodd" clip-rule="evenodd" d="M872.978 280.649C885.371 291.265 903.941 289.727 914.455 277.214C924.969 264.701 923.446 245.951 911.053 235.335C910.971 235.266 910.89 235.197 910.808 235.128L910.583 234.935C848.786 182.435 756.601 190.059 704.089 252.006C714.674 239.959 732.908 238.605 745.132 249.076C757.523 259.691 759.048 278.436 748.539 290.949L748.547 290.957L748.549 290.955C780.053 253.462 835.664 248.813 872.843 280.533C872.888 280.572 872.933 280.61 872.978 280.649Z" fill="url(#paint0_linear_204_3527)"/>
<path fill-rule="evenodd" clip-rule="evenodd" d="M720.196 461.501L720.411 461.686C708.246 451.034 706.812 432.451 717.256 420.021C727.77 407.508 746.34 405.971 758.733 416.586L758.734 416.587L758.738 416.582C721.615 384.778 717.009 328.643 748.407 291.107C748.451 291.055 748.494 291.004 748.537 290.952C759.051 278.439 757.528 259.69 745.135 249.074C732.742 238.458 714.172 239.996 703.658 252.509C703.657 252.51 703.657 252.511 703.656 252.512L703.65 252.507L703.333 252.885C651.24 315.292 658.78 408.459 720.196 461.501Z" fill="url(#paint1_linear_204_3527)"/>
<path fill-rule="evenodd" clip-rule="evenodd" d="M758.762 416.586C746.369 405.97 727.799 407.508 717.285 420.021C706.771 432.534 708.294 451.283 720.687 461.899C720.743 461.947 720.798 461.994 720.854 462.041L720.907 462.087C782.753 514.859 875.208 507.245 927.77 445.084L928.072 444.723L928.07 444.721L928.069 444.722C917.555 457.235 898.985 458.773 886.592 448.157C874.199 437.541 872.676 418.791 883.19 406.278L883.191 406.277L883.189 406.277L883.186 406.28C851.738 443.707 796.268 448.405 759.09 416.871C758.981 416.775 758.872 416.68 758.762 416.586Z" fill="url(#paint2_linear_204_3527)"/>
<path fill-rule="evenodd" clip-rule="evenodd" d="M883.188 406.285C872.679 418.798 874.204 437.543 886.595 448.157C898.988 458.773 917.558 457.235 928.072 444.722C928.135 444.647 928.198 444.572 928.26 444.496L928.289 444.462C980.495 382.042 972.969 288.771 911.483 235.702L911.3 235.546C923.466 246.198 924.9 264.781 914.456 277.21C903.942 289.722 885.374 291.261 872.981 280.648L872.973 280.657C910.135 312.505 914.7 368.737 883.17 406.27L883.188 406.285Z" fill="url(#paint3_linear_204_3527)"/>
<defs>
<linearGradient id="paint0_linear_204_3527" x1="838.888" y1="236.252" x2="604.248" y2="346.867" gradientUnits="userSpaceOnUse">
<stop stop-color="#4285F4"/>
<stop offset="1" stop-color="#4285F4" stop-opacity="0.7"/>
</linearGradient>
<linearGradient id="paint1_linear_204_3527" x1="704.56" y1="325.368" x2="780.722" y2="538.005" gradientUnits="userSpaceOnUse">
<stop stop-color="#0F9D58"/>
<stop offset="1" stop-color="#0F9D58" stop-opacity="0.7"/>
</linearGradient>
<linearGradient id="paint2_linear_204_3527" x1="792.851" y1="460.982" x2="1026.1" y2="377.669" gradientUnits="userSpaceOnUse">
<stop stop-color="#F4B400"/>
<stop offset="1" stop-color="#F4B400" stop-opacity="0.7"/>
</linearGradient>
<linearGradient id="paint3_linear_204_3527" x1="927.161" y1="371.863" x2="860.35" y2="179.882" gradientUnits="userSpaceOnUse">
<stop stop-color="#DB4437"/>
<stop offset="1" stop-color="#DB4437" stop-opacity="0.7"/>
</linearGradient>
</defs>
</svg>
